<svg xmlns="http://www.w3.org/2000/svg" viewBox="85 148 160 160" width="160" height="160" version="1.1">
  <rect x="85" y="148" width="160" height="160" rx="34" fill="#2563EB"/>
  <path d="M 105.167 161.833 C 105.350 162.291, 108.850 168.366, 112.943 175.333 L 120.387 188 163.324 188 L 206.262 188 205.636 191.750 C 205.292 193.813, 204.716 199.887, 204.355 205.250 L 203.699 215 183.100 215.088 C 162.571 215.176, 162.522 215.182, 168.823 216.674 L 175.147 218.171 174.611 221.835 C 174.317 223.851, 173.364 233.825, 172.495 244 C 171.626 254.175, 170.686 263.975, 170.407 265.777 L 169.899 269.054 155.700 268.777 C 142.188 268.513, 141.509 268.403, 141.685 266.500 C 144.333 237.826, 146 218.727, 146 217.056 C 146 214.995, 145.665 214.950, 132.266 215.222 L 118.533 215.500 117.322 227.500 C 116.657 234.100, 115.624 244.225, 115.027 250 C 112.335 276.042, 111 290.139, 111 292.519 L 111 295.095 146.250 294.793 C 185.216 294.459, 185.865 294.366, 196.484 287.536 C 211.853 277.651, 219 266.493, 220.846 249.500 C 224.361 217.134, 225.325 201.848, 224.222 195.919 C 221.245 179.910, 208.799 166.695, 192.650 162.395 C 186.818 160.842, 104.559 160.314, 105.167 161.833" stroke="none" fill="#FFFFFF" fill-rule="evenodd"/>
</svg>
