<svg xmlns="http://www.w3.org/2000/svg" width="827" height="143" viewBox="100 156 827 143" version="1.1">
	<path d="M 105.167 161.833 C 105.350 162.291, 108.850 168.366, 112.943 175.333 L 120.387 188 163.324 188 L 206.262 188 205.636 191.750 C 205.292 193.813, 204.716 199.887, 204.355 205.250 L 203.699 215 183.100 215.088 C 162.571 215.176, 162.522 215.182, 168.823 216.674 L 175.147 218.171 174.611 221.835 C 174.317 223.851, 173.364 233.825, 172.495 244 C 171.626 254.175, 170.686 263.975, 170.407 265.777 L 169.899 269.054 155.700 268.777 C 142.188 268.513, 141.509 268.403, 141.685 266.500 C 144.333 237.826, 146 218.727, 146 217.056 C 146 214.995, 145.665 214.950, 132.266 215.222 L 118.533 215.500 117.322 227.500 C 116.657 234.100, 115.624 244.225, 115.027 250 C 112.335 276.042, 111 290.139, 111 292.519 L 111 295.095 146.250 294.793 C 185.216 294.459, 185.865 294.366, 196.484 287.536 C 211.853 277.651, 219 266.493, 220.846 249.500 C 224.361 217.134, 225.325 201.848, 224.222 195.919 C 221.245 179.910, 208.799 166.695, 192.650 162.395 C 186.818 160.842, 104.559 160.314, 105.167 161.833 M 793.798 190.931 C 770.217 198.471, 759.376 223.554, 770.113 245.734 C 780.378 266.938, 813.983 274.194, 833.971 259.522 C 842.571 253.208, 842.680 253.713, 830.328 242.623 L 827.156 239.775 824.328 242.453 C 813.606 252.607, 796.911 250.229, 790.265 237.602 C 788.052 233.396, 788.086 222.540, 790.326 218.282 C 796.935 205.716, 814.243 203.334, 824.490 213.580 L 827.061 216.152 834.030 209.973 C 842.015 202.894, 841.891 203.192, 838.250 199.848 C 827.176 189.675, 809.079 186.045, 793.798 190.931 M 265 228 L 265 266 285.864 266 C 314.512 266, 322.503 264.108, 332.405 254.981 C 339.620 248.330, 342.394 241.551, 342.826 229.513 C 343.423 212.864, 337.194 201.644, 323.685 195.036 C 314.880 190.729, 309.405 190, 285.864 190 L 265 190 265 228 M 376.023 192.750 C 375.309 194.262, 367.618 211.377, 358.934 230.781 L 343.143 266.062 354.709 265.781 L 366.274 265.500 368.887 258.728 L 371.500 251.955 388.409 252.228 L 405.318 252.500 408.074 259 L 410.830 265.500 422.415 265.782 C 428.787 265.937, 434 265.888, 434 265.673 C 434 265.329, 417.106 227.799, 410.289 213 C 408.896 209.975, 406.971 205.700, 406.011 203.500 C 405.051 201.300, 403.256 197.363, 402.023 194.750 L 399.780 190 388.550 190 L 377.321 190 376.023 192.750 M 440.773 228 L 441.047 266 451.002 266 L 460.957 266 461.228 246.785 L 461.500 227.571 470.500 243.288 L 479.500 259.006 485.346 258.753 L 491.192 258.500 499.665 244 C 504.325 236.025, 508.557 229.072, 509.069 228.550 C 509.644 227.963, 510 234.932, 510 246.800 L 510 266 520 266 L 530 266 530 228 L 530 190 520.604 190 L 511.208 190 508.229 194.750 C 506.590 197.363, 503.333 202.875, 500.991 207 C 494.384 218.633, 485.836 233, 485.521 233 C 485.364 233, 480.852 225.463, 475.493 216.250 C 470.135 207.037, 464.410 197.363, 462.771 194.750 L 459.792 190 450.146 190 L 440.500 189.999 440.773 228 M 561.077 211.233 C 555.894 222.930, 550.101 235.875, 548.205 240 C 543.181 250.926, 537 265.018, 537 265.545 C 537 265.795, 541.987 266, 548.082 266 L 559.165 266 562.275 259 L 565.385 252 581.775 252 L 598.165 252 601.275 259 L 604.385 266 615.693 266 C 621.912 266, 626.994 265.663, 626.988 265.250 C 626.981 264.837, 619.417 247.850, 610.178 227.500 L 593.382 190.500 581.941 190.233 L 570.500 189.966 561.077 211.233 M 620 199 L 620 208 632 208 L 644 208 644 237 L 644 266 654.500 266 L 665 266 665 237 L 665 208 677 208 L 689 208 689 199 L 689 190 654.500 190 L 620 190 620 199 M 697 228 L 697 266 728 266 L 759 266 759 257.521 L 759 249.041 738.750 248.771 L 718.500 248.500 718.202 242.250 L 717.905 236 735.452 236 L 753 236 753 227.500 L 753 219 735.450 219 L 717.900 219 718.200 213.250 L 718.500 207.500 738.250 207.229 L 758 206.958 758 198.479 L 758 190 727.500 190 L 697 190 697 228 M 850 228 L 850 266 861 266 L 872 266 872 251 L 872 236 886.439 236 L 900.877 236 901.533 240.374 C 901.894 242.780, 902.034 249.530, 901.845 255.375 L 901.500 266.002 912.250 266.001 L 923 266 923 228 L 923 190 911.928 190 L 900.856 190 901.558 201.412 C 901.945 207.688, 901.969 213.988, 901.611 215.412 L 900.962 218 886.481 218 L 872 218 872 204 L 872 190 861 190 L 850 190 850 228 M 286 228.086 L 286 248.172 297.340 247.836 C 307.918 247.523, 308.957 247.308, 312.805 244.638 C 320.536 239.275, 323.504 226.827, 319.106 218.210 C 315.005 210.174, 310.203 208, 296.550 208 L 286 208 286 228.086 M 387.141 214.111 C 386.638 215.425, 384.601 220.525, 382.613 225.444 C 380.626 230.364, 379 234.751, 379 235.194 C 379 235.637, 383.275 236, 388.500 236 C 393.725 236, 397.998 235.662, 397.995 235.250 C 397.989 234.349, 389.109 212.776, 388.489 212.156 C 388.251 211.918, 387.644 212.798, 387.141 214.111 M 577.063 222.750 C 574.715 228.662, 572.567 234.063, 572.290 234.750 C 571.908 235.698, 574.105 236, 581.393 236 C 586.677 236, 591.008 235.662, 591.017 235.250 C 591.050 233.851, 582.504 212.034, 581.916 212.017 C 581.595 212.008, 579.411 216.838, 577.063 222.750" stroke="none" fill="#0A0A0B" fill-rule="evenodd"/>
</svg>